<svg width="360" height="394" viewBox="0 0 360 394" fill="none" xmlns="http://www.w3.org/2000/svg">
<path d="M154.596 394C153.005 394 151.451 393.572 150.011 392.715L10.3443 309.858C3.97858 306.081 0 299.033 0 291.441V102.559C0 95.0054 3.97858 87.9579 10.3443 84.1421L150.011 1.28491C151.451 0.428303 153.005 0 154.596 0C159.029 0 163.842 3.62111 163.842 9.50054V83.0129C163.842 86.4004 162.061 89.5543 159.219 91.2286L89.1201 132.813C83.7396 136.006 80.3672 141.963 80.3672 148.349V245.651C80.3672 252.037 83.7017 257.994 89.1201 261.187L159.219 302.771C162.061 304.446 163.842 307.6 163.842 310.987V384.461C163.842 387.069 162.856 389.483 161.038 391.274C159.295 392.988 156.945 393.961 154.596 393.961V394Z" fill="#CA3733"/>
<path d="M205.148 394C200.714 394 195.902 390.379 195.902 384.499V311.026C195.902 307.638 197.683 304.485 200.525 302.81L270.624 261.226C276.004 258.033 279.376 252.076 279.376 245.69V148.388C279.376 142.002 276.042 136.045 270.624 132.852L200.525 91.2675C197.683 89.5932 195.902 86.4394 195.902 83.0519V9.50054C195.902 3.62111 200.714 0 205.148 0C206.777 0 208.293 0.428303 209.732 1.28491L349.399 84.1421C355.765 87.919 359.744 94.9665 359.744 102.559V291.441C359.744 298.995 355.765 306.081 349.399 309.858L209.732 392.715C208.293 393.572 206.739 394 205.148 394Z" fill="#CA3733"/>
<path d="M179.875 251.071C208.922 251.071 232.468 226.874 232.468 197.027C232.468 167.179 208.922 142.983 179.875 142.983C150.829 142.983 127.282 167.179 127.282 197.027C127.282 226.874 150.829 251.071 179.875 251.071Z" fill="#CA3733"/>
</svg>
