<svg width="769" height="215" viewBox="0 0 769 215" fill="none" xmlns="http://www.w3.org/2000/svg">
<path d="M362.23 162.079C362.23 167.383 357.857 171.756 352.553 171.756C348.39 171.756 344.761 169.104 343.621 165.685L335.643 144.611H272.816L264.837 165.685C263.511 169.104 259.906 171.756 255.905 171.756C250.602 171.756 246.229 167.383 246.229 162.079C246.229 160.94 246.601 159.614 246.996 158.474L288.749 53.8704C291.029 47.7993 297.1 43.2402 304.125 43.2402C311.149 43.2402 317.22 47.7993 319.686 53.8704L361.439 158.474C361.811 159.428 362.207 160.754 362.207 162.079H362.23ZM329.386 127.723L304.148 60.7091L279.096 127.723H329.409H329.386Z" fill="#FAFAFA"/>
<path d="M372.094 162.265V52.7306C372.094 47.6133 376.467 43.2402 381.77 43.2402C387.074 43.2402 391.074 47.6133 391.074 52.7306V162.265C391.074 167.383 386.888 171.756 381.77 171.756C376.653 171.756 372.094 167.383 372.094 162.265Z" fill="#FAFAFA"/>
<path d="M529.472 162.265V114.232H461.201V162.265C461.201 167.383 457.015 171.756 451.897 171.756C446.78 171.756 442.221 167.383 442.221 162.265V52.7306C442.221 47.6133 446.594 43.2402 451.711 43.2402C456.828 43.2402 461.201 47.6133 461.201 52.7306V97.3447H529.472V52.7306C529.472 47.6133 533.659 43.2402 538.962 43.2402C544.266 43.2402 548.453 47.6133 548.453 52.7306V162.265C548.453 167.383 544.266 171.756 538.962 171.756C533.659 171.756 529.472 167.383 529.472 162.265Z" fill="#FAFAFA"/>
<path d="M563.949 53.2191C563.949 47.6133 568.671 43.2402 574.114 43.2402C579.557 43.2402 584.279 47.6133 584.279 53.2191C584.279 58.8249 579.72 63.384 574.114 63.384C568.508 63.384 563.949 58.8249 563.949 53.2191ZM565.764 163.219V86.7146C565.764 81.9694 569.555 78.1779 574.3 78.1779C579.045 78.1779 582.837 81.9694 582.837 86.7146V163.219C582.837 167.964 578.859 171.756 574.114 171.756C569.369 171.756 565.764 167.964 565.764 163.219Z" fill="#FAFAFA"/>
<path d="M679.088 86.7101C679.088 87.8499 678.716 88.9897 678.32 90.1294L648.128 163.587C646.034 168.518 641.289 171.751 635.986 171.751C630.287 171.751 625.542 168.518 623.658 163.587L593.279 89.9201C592.907 88.9664 592.721 87.8266 592.721 86.6868C592.721 81.9417 596.326 78.1501 601.071 78.1501C604.491 78.1501 607.91 80.4297 609.05 83.4536L635.823 151.422L662.596 83.4536C663.736 80.4064 666.969 78.1501 670.574 78.1501C675.32 78.1501 679.111 81.9417 679.111 86.6868L679.088 86.7101Z" fill="#FAFAFA"/>
<path d="M724.999 76.8315C752.145 76.8315 768.985 97.9756 768.985 121.771C768.985 126.819 765.427 129.82 759.053 129.82H697.459C698.761 145.172 709.996 157.895 728.163 157.895C735.839 157.895 743.887 155.453 750.633 150.591C751.563 149.847 752.889 149.661 754.378 149.661C758.123 149.661 761.123 152.662 761.123 156.407C761.123 158.849 760.007 160.71 758.123 162.036C749.144 168.595 738.467 171.759 726.488 171.759C699.529 171.759 679.688 152.662 679.688 124.214C679.688 97.9988 698.598 76.8548 724.999 76.8548V76.8315ZM697.296 117.654H752.517C752.145 105.675 744.096 90.6949 724.999 90.6949C705.902 90.6949 698.226 105.303 697.296 117.654Z" fill="#FAFAFA"/>
<path d="M86.6884 215C85.7961 215 84.9249 214.766 84.1175 214.299L5.80048 169.085C2.23095 167.024 0 163.178 0 159.035V55.965C0 51.8431 2.23095 47.9973 5.80048 45.9151L84.1175 0.701156C84.9249 0.233719 85.7961 0 86.6884 0C89.1744 0 91.8728 1.97599 91.8728 5.18431V45.2989C91.8728 47.1474 90.8741 48.8685 89.2806 49.7821L49.9733 72.4741C46.9562 74.2163 45.0652 77.4671 45.0652 80.9517V134.048C45.0652 137.533 46.935 140.784 49.9733 142.526L89.2806 165.218C90.8741 166.132 91.8728 167.853 91.8728 169.701V209.794C91.8728 211.218 91.3203 212.535 90.3005 213.513C89.3231 214.448 88.0058 214.979 86.6884 214.979V215Z" fill="#CA3733"/>
<path d="M115.036 215C112.55 215 109.852 213.024 109.852 209.816V169.722C109.852 167.874 110.851 166.153 112.444 165.239L151.751 142.547C154.769 140.805 156.66 137.554 156.66 134.07V80.9729C156.66 77.4884 154.79 74.2376 151.751 72.4953L112.444 49.8033C110.851 48.8897 109.852 47.1687 109.852 45.3202V5.18431C109.852 1.97599 112.55 0 115.036 0C115.95 0 116.8 0.233719 117.607 0.701156L195.924 45.9151C199.494 47.9761 201.725 51.8218 201.725 55.965V159.035C201.725 163.157 199.494 167.024 195.924 169.085L117.607 214.299C116.8 214.766 115.929 215 115.036 215Z" fill="#CA3733"/>
<path d="M100.862 136.996C117.149 136.996 130.353 123.792 130.353 107.505C130.353 91.2175 117.149 78.0139 100.862 78.0139C84.5742 78.0139 71.3706 91.2175 71.3706 107.505C71.3706 123.792 84.5742 136.996 100.862 136.996Z" fill="#CA3733"/>
</svg>
